<svg width="110" height="93" viewBox="0 0 110 93" fill="none" xmlns="http://www.w3.org/2000/svg">
<g clip-path="url(#clip0)">
<path d="M99.7929 64.8132C91.2983 64.7496 82.8961 63.9473 74.5248 62.8988C70.3391 62.3746 70.276 68.8687 74.4616 69.3929C79.1397 69.9788 83.9103 69.8261 88.6501 69.9196C86.7724 70.9348 85.1409 71.9809 83.2632 72.9961C77.938 75.5801 72.7362 77.1793 67.3806 78.009C55.6538 79.7912 44.513 76.8954 35.4661 69.2603C26.2039 61.3481 20.328 50.359 17.5301 38.7551C16.3005 32.5992 15.5941 26.2588 15.134 19.9492C15.0116 16.933 14.9201 13.6705 15.0439 10.6851C14.9216 7.6688 15.507 4.99127 14.8613 2.15955C14.4002 -0.148906 11.1378 -0.0573685 10.6449 1.88152C9.50531 4.9898 9.56601 8.49849 9.41133 11.7301C9.19498 15.4542 9.00946 18.932 9.31638 22.4716C9.71483 29.2736 10.3595 36.1064 12.2661 42.8472C15.6485 55.7748 22.4167 67.6259 32.8792 75.9385C42.88 83.9431 55.4365 87.5164 67.9636 85.3343C73.8424 84.32 79.8754 82.0747 85.2315 79.2445C87.1092 78.2293 89.2948 76.7524 91.4803 75.2756C91.1416 75.9835 90.5567 76.6604 90.2488 77.122C88.0627 80.5994 85.3842 84.0151 84.3984 87.8928C83.9054 89.8317 86.2442 91.125 87.6604 89.8019C90.7388 87.1865 92.7403 83.1859 95.1418 79.9856C97.5741 76.539 99.791 72.8154 102.254 69.1227C103.486 67.2763 102.04 64.8445 99.7929 64.8132Z" fill="#ECF1FE"/>
</g>
<defs>
<clipPath id="clip0">
<rect width="100" height="80.1489" fill="white" transform="translate(10.3682 0.0969238) rotate(7.139)"/>
</clipPath>
</defs>
</svg>
