<svg width="24" height="24" viewBox="0 0 24 24" fill="none" xmlns="http://www.w3.org/2000/svg">
<path d="M14.0858 21.0858L13 20L20 13L21.0858 14.0858C21.8668 14.8668 21.8668 16.1332 21.0858 16.9142L16.9142 21.0858C16.1332 21.8668 14.8668 21.8668 14.0858 21.0858Z" fill="#546EE8"/>
<path opacity="0.25" d="M3.53051 12.7138L2.37708 4.63982C2.18852 3.31989 3.31989 2.18852 4.63982 2.37708L12.7138 3.53051C14.7585 3.82261 16.5093 5.1459 17.3481 7.03337L20 13L13 20L7.03337 17.3481C5.1459 16.5093 3.82261 14.7585 3.53051 12.7138Z" fill="#546EE8"/>
<path d="M9.06763 10.4819L2.42383 3.83811C2.60798 3.15188 3.15177 2.60805 3.83797 2.42383L10.4819 9.06773C10.6471 9.02355 10.8207 9 10.9999 9C12.1044 9 12.9999 9.89543 12.9999 11C12.9999 12.1046 12.1044 13 10.9999 13C9.89531 13 8.99988 12.1046 8.99988 11C8.99988 10.8208 9.02344 10.6472 9.06763 10.4819Z" fill="#546EE8"/>
</svg>
