<svg width="55" height="56" viewBox="0 0 55 56" fill="none" xmlns="http://www.w3.org/2000/svg">
<path d="M11.5554 35.3876C11.5554 38.6254 8.95765 41.2704 5.77769 41.2704C2.59772 41.2704 0 38.6254 0 35.3876C0 32.1498 2.59772 29.5049 5.77769 29.5049H11.5554V35.3876Z" fill="#E01E5A"/>
<path d="M14.4668 35.3876C14.4668 32.1498 17.0645 29.5049 20.2445 29.5049C23.4245 29.5049 26.0222 32.1498 26.0222 35.3876V50.1173C26.0222 53.355 23.4245 56 20.2445 56C17.0645 56 14.4668 53.355 14.4668 50.1173V35.3876Z" fill="#E01E5A"/>
<path d="M20.2445 11.7655C17.0645 11.7655 14.4668 9.12052 14.4668 5.88274C14.4668 2.64495 17.0645 0 20.2445 0C23.4245 0 26.0222 2.64495 26.0222 5.88274V11.7655H20.2445Z" fill="#36C5F0"/>
<path d="M20.2443 14.7295C23.4243 14.7295 26.022 17.3744 26.022 20.6122C26.022 23.85 23.4243 26.495 20.2443 26.495H5.77769C2.59772 26.495 0 23.85 0 20.6122C0 17.3744 2.59772 14.7295 5.77769 14.7295C5.77769 14.7295 20.2443 14.7295 20.2443 14.7295Z" fill="#36C5F0"/>
<path d="M43.4448 20.6122C43.4448 17.3744 46.0425 14.7295 49.2225 14.7295C52.4025 14.7295 55.0002 17.3744 55.0002 20.6122C55.0002 23.85 52.4025 26.495 49.2225 26.495H43.4448V20.6122Z" fill="#2EB67D"/>
<path d="M40.5334 20.6124C40.5334 23.8502 37.9357 26.4951 34.7557 26.4951C31.5757 26.4951 28.978 23.8502 28.978 20.6124V5.88274C28.978 2.64495 31.5757 0 34.7557 0C37.9357 0 40.5334 2.64495 40.5334 5.88274V20.6124Z" fill="#2EB67D"/>
<path d="M34.7557 44.2346C37.9357 44.2346 40.5334 46.8796 40.5334 50.1174C40.5334 53.3551 37.9357 56.0001 34.7557 56.0001C31.5757 56.0001 28.978 53.3551 28.978 50.1174V44.2346H34.7557Z" fill="#ECB22E"/>
<path d="M34.7557 41.2704C31.5757 41.2704 28.978 38.6254 28.978 35.3876C28.978 32.1498 31.5757 29.5049 34.7557 29.5049H49.2223C52.4023 29.5049 55 32.1498 55 35.3876C55 38.6254 52.4023 41.2704 49.2223 41.2704H34.7557Z" fill="#ECB22E"/>
</svg>
