<svg width="57" height="57" viewBox="0 0 57 57" fill="none" xmlns="http://www.w3.org/2000/svg">
<path d="M52.7535 4.0498H4.20093V51.7759H52.7535V4.0498Z" fill="white"/>
<path fill-rule="evenodd" clip-rule="evenodd" d="M7.125 0C3.18915 0 0 3.192 0 7.125V49.875C0 53.8108 3.192 57 7.125 57H49.875C53.8108 57 57 53.808 57 49.875V7.125C57 3.18915 53.808 0 49.875 0H7.125ZM35.625 7.41C33.7355 7.41 32.205 8.94045 32.205 10.8328V28.9246C32.205 30.8142 33.7355 32.3475 35.625 32.3475H46.17C48.0596 32.3475 49.59 30.817 49.59 28.9246V10.83C49.59 8.9433 48.0596 7.41 46.17 7.41H35.625ZM10.83 7.41C8.94045 7.41 7.41 8.94045 7.41 10.8272V43.1803C7.41 45.067 8.94045 46.5975 10.83 46.5975H21.375C23.2645 46.5975 24.795 45.067 24.795 43.1803V10.8272C24.795 8.94045 23.2645 7.41 21.375 7.41H10.83Z" fill="#0079BF"/>
</svg>
