<svg width="67" height="54" viewBox="0 0 67 54" fill="none" xmlns="http://www.w3.org/2000/svg">
<g clip-path="url(#clip0)">
<path d="M10.3282 37.2341L6.82324 38.5253L6.63672 49.0373L18.7689 44.5687C14.6042 43.1624 11.567 40.6839 10.3282 37.2341Z" fill="#FDBD39"/>
<path d="M12.1628 26.1157L0 30.5956L6.82333 38.528L10.3282 37.2368C9.0922 33.7983 9.85499 29.9163 12.1628 26.1157Z" fill="#F69833"/>
<path d="M32.6272 10.9443C17.1404 16.648 7.15457 28.4204 10.3282 37.2342L66.4098 16.5779C63.2361 7.76406 48.114 5.24062 32.6272 10.9443Z" fill="#FECF33"/>
<path d="M44.108 42.8704C59.5948 37.1667 69.5974 25.4477 66.407 16.5806L10.3254 37.2341C13.5158 46.104 28.6212 48.5741 44.108 42.8704Z" fill="#EE6723"/>
<path d="M66.4072 16.5779L10.3284 37.2342C11.4252 40.2881 15.615 41.7927 21.489 41.7927C27.2183 41.7927 34.551 40.3639 42.1956 37.5486C57.6824 31.8449 68.5758 22.6072 66.4072 16.5779Z" fill="#F69833"/>
<path d="M55.2465 12.0222C49.52 12.0222 42.1844 13.451 34.5399 16.2663C19.053 21.97 8.15966 31.2049 10.3283 37.2342L66.4099 16.5779C65.3102 13.5239 61.1233 12.0222 55.2465 12.0222Z" fill="#FDBD39"/>
<path d="M52.1479 49.5958C50.497 49.5958 48.0639 48.0941 44.9125 45.13C41.1849 41.6241 36.9172 36.4874 32.8889 30.6686C28.8633 24.8498 25.5561 19.0338 23.5739 14.2873C21.4164 9.11689 21.1074 5.93942 22.658 4.8391C23.0172 4.59209 23.4431 4.46578 23.8774 4.47701C25.1385 4.47701 27.5995 5.42295 32.1456 9.93651L32.2458 10.0348L32.2319 10.1751C32.2012 10.5007 32.1734 10.8263 32.1483 11.1491L32.0982 11.7863L31.6528 11.3344C26.7531 6.35766 24.5984 5.82153 23.8969 5.82153C23.6964 5.82153 23.5377 5.86083 23.4236 5.94223C22.7499 6.41941 22.7054 8.75479 24.7989 13.7652C26.7448 18.4247 30.0047 24.1537 33.9774 29.8967C37.9528 35.6425 42.1565 40.7006 45.8201 44.1447C49.7676 47.8583 51.5465 48.2597 52.1284 48.2597C52.3288 48.2597 52.4903 48.2176 52.6128 48.1306C53.3227 47.6282 53.3227 45.1272 50.9898 39.7322L50.8812 39.4852L51.115 39.3561C51.3489 39.227 51.5772 39.1007 51.7887 38.9772L52.0699 38.8172L52.2008 39.1147C53.8544 42.9378 55.4022 47.7966 53.3728 49.2337C53.0137 49.4807 52.5849 49.6071 52.1479 49.5958ZM52.1479 49.0064V49.3011V49.0064Z" fill="#EE6723"/>
<path d="M44.4838 42.7077L44.4616 42.9996C44.069 47.8837 43.039 53.7558 40.3498 53.9944C40.2941 54 40.2384 54 40.1855 54C38.3593 54 36.6305 51.3615 35.052 46.1602C33.5543 41.2368 32.3934 34.6293 31.7837 27.553C31.1713 20.4767 31.1796 13.7653 31.8088 8.65381C32.4936 3.08483 33.7965 0.176838 35.684 0.00842083C35.7396 0.00280694 35.7981 0 35.8538 0C37.1789 0 39.175 1.51294 41.2183 8.55837L39.8849 8.81661C39.2028 6.46439 38.4595 4.55006 37.7218 3.23079C37.0397 2.01539 36.3744 1.34453 35.8538 1.34453C35.8371 1.34453 35.8204 1.34453 35.8009 1.34733C34.9824 1.42031 33.7909 3.41886 33.1283 8.81942C32.5103 13.8382 32.502 20.4514 33.1061 27.4351C33.7102 34.4216 34.8516 40.9309 36.3215 45.7644C36.9785 47.9286 37.6995 49.7138 38.4094 50.9236C39.0608 52.0408 39.6928 52.6555 40.1855 52.6555C40.2022 52.6555 40.2189 52.6555 40.2356 52.6527C41.0179 52.5853 42.4934 50.5025 43.1142 43.1792L44.4838 42.7077Z" fill="#EE6723"/>
</g>
<defs>
<clipPath id="clip0">
<rect width="67" height="54" fill="white"/>
</clipPath>
</defs>
</svg>
