<svg width="191" height="39" viewBox="0 0 191 39" fill="none" xmlns="http://www.w3.org/2000/svg">
<path d="M0 26.1745V35.796C3.94395 35.796 21.7237 35.796 21.7237 35.796V26.1745C21.7237 26.1745 3.94395 26.1745 0 26.1745Z" fill="url(#paint0_linear)"/>
<path d="M21.7238 35.7902C24.4216 35.7902 26.6087 33.6377 26.6087 30.9824C26.6087 28.3271 24.4216 26.1745 21.7238 26.1745C19.0259 26.1745 16.8389 28.3271 16.8389 30.9824C16.8389 33.6377 19.0259 35.7902 21.7238 35.7902Z" fill="#546EE8"/>
<path d="M83.0613 11.2617C87.923 11.2617 89.0847 14.0115 89.0847 16.1896C89.0847 19.654 87.1621 21.6892 83.4389 21.6892H76.248V27.4746H71.6187V11.2617H83.0613ZM81.1968 18.7393C82.6547 18.7393 84.3101 18.6821 84.3101 16.504C84.3101 14.3831 82.9393 14.2115 81.6324 14.2115H76.248V18.7393H81.1968Z" fill="#243141"/>
<path d="M99.4758 13.7803C97.5532 13.7803 96.3044 14.5807 96.3044 15.644C96.3044 16.5015 97.0885 16.9932 98.2851 17.1647L104.076 18.0508C107.16 18.5081 109.519 19.6286 109.519 22.5499C109.519 25.5284 107.393 27.9352 100.667 27.9352C96.5309 27.9352 91.1465 27.4493 91.0884 22.4356H96.2986C96.3276 24.6423 98.6859 25.0139 100.667 25.0139C102.851 25.0139 104.332 24.4136 104.332 23.0073C104.332 21.7782 103.286 21.4294 101.451 21.1722L97.2279 20.5719C94.2598 20.1431 91.4078 19.3142 91.4078 16.0156C91.4078 12.4368 94.4921 10.9733 99.8475 10.9733C103.338 10.9733 108.554 11.545 108.845 16.0728H103.722C103.437 13.9804 101.311 13.7803 99.4758 13.7803Z" fill="#243141"/>
<path d="M128.326 14.3545H117.058V17.7045H127.769V20.6544H117.058V24.3818H128.443V27.4746H112.429V11.2617H128.326V14.3545Z" fill="#243141"/>
<path d="M136.36 11.2617V24.2389H146.722V27.4746H131.73V11.2617H136.36Z" fill="#243141"/>
<path d="M158.833 11.0018C167.975 11.0018 169.428 16.1013 169.428 19.457C169.428 22.8128 167.97 27.9408 158.833 27.9408C149.661 27.9408 148.238 22.8128 148.238 19.457C148.238 16.1013 149.661 11.0018 158.833 11.0018ZM158.833 24.8709C163.027 24.8709 164.508 21.9496 164.508 19.457C164.508 16.9645 163.021 14.0432 158.833 14.0432C154.639 14.0432 153.158 16.9645 153.158 19.457C153.158 21.9496 154.639 24.8709 158.833 24.8709Z" fill="#243141"/>
<path d="M191 11.2617V27.4804H185.964L176.706 16.161H176.647V27.4804H172.163V11.2617H177.519L186.487 22.581H186.516V11.2617H191Z" fill="#243141"/>
<path d="M61.4073 11.2845L55.6395 11.2617L48.1582 27.4803H53.1361L58.4334 14.7546L63.7365 27.4803L68.8886 27.5032L61.4073 11.2845Z" fill="#243141"/>
<path d="M26.6783 5.2508L18.2153 0.442932C16.2463 3.80444 7.35352 18.9598 7.35352 18.9598L15.8164 23.7677C15.8223 23.7677 24.7092 8.6123 26.6783 5.2508Z" fill="url(#paint1_linear)"/>
<path d="M11.588 26.1687C14.2859 26.1687 16.473 24.0162 16.473 21.3608C16.473 18.7055 14.2859 16.553 11.588 16.553C8.89018 16.553 6.70312 18.7055 6.70312 21.3608C6.70312 24.0162 8.89018 26.1687 11.588 26.1687Z" fill="#546EE8"/>
<path d="M31.7549 38.4656L40.2178 33.6577C38.2488 30.2962 29.356 15.1409 29.356 15.1409L20.8931 19.9487C20.8931 19.9487 29.7858 35.1041 31.7549 38.4656Z" fill="url(#paint2_linear)"/>
<path d="M25.1271 22.3555C27.825 22.3555 30.012 20.203 30.012 17.5477C30.012 14.8924 27.825 12.7398 25.1271 12.7398C22.4292 12.7398 20.2422 14.8924 20.2422 17.5477C20.2422 20.203 22.4292 22.3555 25.1271 22.3555Z" fill="#546EE8"/>
<defs>
<linearGradient id="paint0_linear" x1="0" y1="30.9833" x2="21.7223" y2="30.9833" gradientUnits="userSpaceOnUse">
<stop offset="0.0732" stop-color="#546EE8" stop-opacity="0"/>
<stop offset="1" stop-color="#546EE8" stop-opacity="0.7"/>
</linearGradient>
<linearGradient id="paint1_linear" x1="22.5063" y1="2.89862" x2="11.9021" y2="21.5595" gradientUnits="userSpaceOnUse">
<stop offset="0.0732" stop-color="#546EE8" stop-opacity="0"/>
<stop offset="1" stop-color="#546EE8" stop-opacity="0.7"/>
</linearGradient>
<linearGradient id="paint2_linear" x1="35.9139" y1="36.084" x2="25.3097" y2="17.4232" gradientUnits="userSpaceOnUse">
<stop offset="0.0732" stop-color="#546EE8" stop-opacity="0"/>
<stop offset="1" stop-color="#546EE8" stop-opacity="0.7"/>
</linearGradient>
</defs>
</svg>
